<!--?xml version="1.0" standalone="no"?-->
<svg id="sw-js-blob-svg" viewBox="0 0 100 100" xmlns="http://www.w3.org/2000/svg">
    <defs>
        <linearGradient id="sw-gradient" x1="0" x2="1" y1="1" y2="0">
            <stop id="stop1" stop-color="rgba(248, 117, 55, 1)" offset="0%"></stop>
            <stop id="stop2" stop-color="rgba(251, 168, 31, 1)" offset="100%"></stop>
        </linearGradient>
    </defs>
    <path fill="none"
        d="M26,-30C32.9,-25.1,37.4,-16.2,37,-8.1C36.5,0.1,31.2,7.5,26.1,14C21.1,20.5,16.3,26,10.1,28.6C4,31.1,-3.5,30.7,-11.4,28.9C-19.2,27,-27.3,23.7,-32.7,17.4C-38,11.1,-40.7,1.7,-38.2,-5.7C-35.6,-13.1,-27.8,-18.5,-20.6,-23.3C-13.4,-28.2,-6.7,-32.5,1.4,-34.2C9.5,-35.9,19,-34.9,26,-30Z"
        width="100%" height="100%" transform="translate(50 50)" stroke-width="1" style="transition: all 0.3s ease 0s;"
        stroke="url(#sw-gradient)"></path>


</svg>